<svg id="icon-clef_staff" style="enable-background:new 424.5 143.1 539.5 498.3;" version="1.1" viewBox="424.5 143.1 539.5 498.3" xml:space="preserve" xmlns="http://www.w3.org/2000/svg" xmlns:xlink="http://www.w3.org/1999/xlink"><g><path class="st0" d="M958.1,340.4h-299c-3.3,0-6-2.7-6-6s2.7-6,6-6H958c3.3,0,6,2.7,6,6C964.1,337.8,961.4,340.4,958.1,340.4z"/><path class="st0" d="M958.1,262.6h-299c-3.3,0-6-2.7-6-6s2.7-6,6-6H958c3.3,0,6,2.7,6,6S961.4,262.6,958.1,262.6z"/><path class="st0" d="M958.1,418.3h-299c-3.3,0-6-2.7-6-6s2.7-6,6-6H958c3.3,0,6,2.7,6,6C964.1,415.6,961.4,418.3,958.1,418.3z"/><path class="st0" d="M958.1,496.1h-299c-3.3,0-6-2.7-6-6s2.7-6,6-6H958c3.3,0,6,2.7,6,6C964.1,493.4,961.4,496.1,958.1,496.1z"/><path class="st0" d="M958.1,574h-299c-3.3,0-6-2.7-6-6s2.7-6,6-6H958c3.3,0,6,2.7,6,6C964.1,571.3,961.4,574,958.1,574z"/><path class="st0" d="M494.3,641.4c-25.9,0-46.9-21-46.9-46.9c0-2.9,0.3-5.7,0.8-8.6c0.6-3.3,3.7-5.4,7-4.8c3.3,0.6,5.4,3.7,4.8,7   c-0.4,2.1-0.6,4.2-0.6,6.4c0,19.3,15.7,34.9,34.9,34.9c21.9,0,34.9-15,34.9-40v-65.3h-3.4c-59.6,0-101.3-39.1-101.3-95.2   c0-22.7,8.1-44.3,23.5-62.6c10.8-12.8,28.7-26.8,49.4-42.9c10.3-8,21.1-16.5,31.8-25.3V185.7c0-23.5,19.1-42.6,42.6-42.6   s42.6,19.1,42.6,42.6c0,0.6,0,1.2-0.1,1.9c0,0.4,0,0.7,0,1.1c0,44.7-34.9,82.7-73.1,115.1v62.7c2.3-0.2,4.6-0.3,7-0.3   c43.3,0,78.6,35.2,78.6,78.6c0,42.4-39.1,79.6-83.6,79.6h-1.9v65.2C541.3,621,522.8,641.4,494.3,641.4z M541.3,512.1h2   c38.1,0,71.6-31.6,71.6-67.6c0-36.7-29.9-66.6-66.6-66.6c-2.4,0-4.7,0.1-7,0.4V512.1z M529.3,313.5c-8.2,6.7-16.5,13.1-24.4,19.3   c-20.2,15.7-37.6,29.3-47.6,41.2c-13.5,16.1-20.7,35.1-20.7,54.9c0,49.8,35.9,83.2,89.3,83.2h3.4V380.8   c-25.4,7.7-44.9,30.4-47.3,57.9c-0.3,3.3-3.2,5.7-6.5,5.5c-3.3-0.3-5.7-3.2-5.5-6.5c1.7-19.5,10.6-37.6,25-50.9   c9.8-9,21.6-15.3,34.2-18.5L529.3,313.5z M571.9,155c-16.9,0-30.6,13.7-30.6,30.6v102.2c32.9-29,61.1-62.2,61.1-99.2   c0-0.6,0-1.2,0.1-1.8c0-0.4,0-0.8,0-1.1C602.5,168.7,588.8,155,571.9,155z"/></g></svg>
